<?xml version="1.0" standalone="no"?>
<!DOCTYPE svg PUBLIC "-//W3C//DTD SVG 20010904//EN"
 "http://www.w3.org/TR/2001/REC-SVG-20010904/DTD/svg10.dtd">
<svg version="1.0" xmlns="http://www.w3.org/2000/svg"
 width="700.000000pt" height="700.000000pt" viewBox="0 0 700.000000 700.000000"
 preserveAspectRatio="xMidYMid meet">
<metadata>
Created by potrace 1.11, written by Peter Selinger 2001-2013
</metadata>
<g transform="translate(0.000000,700.000000) scale(0.100000,-0.100000)"
fill="#000000" stroke="none">
<path d="M687 6663 c40 -1556 213 -2859 480 -3618 352 -1000 1012 -1884 1918
-2567 101 -76 274 -196 376 -261 l56 -36 114 76 c646 427 1200 975 1614 1598
309 464 520 913 670 1420 170 577 298 1405 360 2330 28 418 35 577 42 898 l6
317 -2820 0 -2821 0 5 -157z m5529 -209 c-19 -746 -99 -1640 -202 -2259 -104
-626 -239 -1104 -441 -1553 -366 -819 -969 -1558 -1738 -2131 l-110 -82 -3 68
c-3 74 34 1789 43 1993 15 327 84 512 239 640 l47 39 51 -39 c27 -22 55 -40
62 -40 13 0 491 402 558 468 l36 37 -24 49 c-13 28 -24 53 -24 58 0 21 435
418 594 543 143 112 153 122 139 136 -10 10 -23 10 -64 1 -71 -17 -186 -15
-248 4 -41 12 -68 30 -113 74 -40 40 -64 57 -75 53 -9 -4 -59 -33 -111 -66
-100 -63 -359 -192 -454 -226 l-57 -20 -78 83 c-95 101 -155 203 -204 350
-128 379 -94 815 96 1211 125 262 331 493 567 640 46 29 61 58 36 67 -18 7
-240 -16 -363 -37 -861 -145 -1662 -678 -2163 -1437 -294 -446 -509 -1030
-547 -1490 -6 -72 -5 -78 12 -78 11 0 30 12 44 26 32 35 266 227 354 290 192
140 372 229 547 271 54 13 111 18 213 17 122 -1 152 -4 230 -28 50 -15 127
-47 171 -72 88 -47 215 -158 265 -230 l29 -43 -69 -92 c-127 -167 -224 -400
-256 -614 -18 -125 -14 -298 45 -1560 29 -638 43 -1016 36 -1022 -6 -6 -231
161 -351 262 -438 366 -810 778 -1114 1232 -379 569 -611 1135 -765 1870 -141
670 -249 1718 -273 2646 l-6 257 2723 0 2723 0 -7 -266z m-1322 -2244 c-1 -32
-71 -160 -182 -334 l-32 -50 0 47 c0 61 31 143 85 223 60 89 64 104 28 104
-15 -1 -57 -7 -93 -15 -74 -16 -168 -19 -189 -6 -11 7 -4 11 25 17 21 4 86 17
144 30 58 12 130 22 160 21 l55 -2 -1 -35z m-1404 -832 c-30 -179 -32 -228 -7
-228 7 0 44 15 82 33 120 58 169 70 251 64 39 -3 85 -12 100 -21 l29 -15 -44
-1 c-95 0 -171 -22 -288 -81 -119 -60 -155 -69 -187 -46 -55 40 -28 256 57
456 27 64 33 72 35 48 2 -15 -11 -109 -28 -209z m-45 -633 c168 -195 215 -269
223 -358 2 -28 2 -50 -1 -46 -4 3 -79 90 -167 195 -95 112 -172 213 -190 249
-30 60 -53 170 -32 150 6 -5 81 -91 167 -190z m53 -875 c86 -99 128 -170 139
-235 l6 -39 -30 22 c-34 24 -228 231 -261 279 -27 39 -62 136 -62 172 1 24 6
21 63 -39 34 -36 99 -108 145 -160z m19 -843 c93 -112 114 -151 121 -222 l5
-50 -78 83 c-173 184 -236 281 -235 365 l1 32 52 -55 c29 -31 89 -100 134
-153z"/>
</g>
</svg>
