<?xml version="1.0" encoding="utf-8"?>
<!-- Generator: Adobe Illustrator 21.1.0, SVG Export Plug-In . SVG Version: 6.00 Build 0)  -->
<svg version="1.1" id="Layer_1" xmlns="http://www.w3.org/2000/svg" xmlns:xlink="http://www.w3.org/1999/xlink" x="0px" y="0px"
	 viewBox="0 0 278.9 82.9" style="enable-background:new 0 0 278.9 82.9;" xml:space="preserve">
<style type="text/css">
	.st0{fill:#FFD520;}
</style>
<g>
	<g>
		<g>
			<g>
				<g>
					<path d="M3.9,1.2c0,0,0.1,27.7,5.4,44.5c4.9,15.2,15.8,27.9,29,36.1C51.5,73.6,62.1,60.9,67,45.7c5.4-16.8,5.4-44.5,5.4-44.5
						H3.9z"/>
				</g>
			</g>
		</g>
		<g>
			<path class="st0" d="M38.4,80.4C25,71.9,14.9,59.2,10.4,45.3C5.8,30.8,5.2,7.7,5.1,2.3h66.2c-0.1,5.4-0.7,28.5-5.4,43
				C61.4,59.5,51.6,72,38.4,80.4z"/>
			<g>
				<path d="M16.3,41.2c0.1-0.1,0.6-0.6,1.1-1C20.2,38,25.2,33.4,31,34c5.4,0.6,7.5,4.6,7.5,4.6c-2.4,2.6-3.9,6.4-4.1,9.6
					c-0.1,3.1,0.9,22.4,0.9,22.4s0.1,5.1,0.3,8.1c0.9,0.7,1.9,1.3,2.8,1.9c0.8-0.5,1.5-1,2.3-1.5l0.5-21.4c0.2-3.6-0.4-8.3,2.5-11.3
					c0.2-0.2,1.1-0.9,1.1-0.9s0.9,0.8,1.2,0.9c0.1,0.1,0.3,0.1,0.4,0l6.8-5.8c0.1-0.1,0.2-0.3,0.1-0.4c-0.2-0.5-0.6-1.2-0.6-1.2
					s5.5-5.4,8.9-7.8c0.3-0.2,0.1-0.7-0.3-0.5c-1.7,0.7-3.5,0.5-4.5-0.5c-0.4-0.4-0.6-1.1-1.2-0.7c-4,2.7-7.3,3.7-7.3,3.7
					c-1.2-1-2-2.1-2.7-3.3c-3.3-6.7-1.6-15.4,3.1-20.9c1.5-1.7,2.9-2.8,4.7-3.9c0.2-0.1,0.2-0.5-0.2-0.5C38.2,5.2,24.9,15,19,28.6
					c-1.7,3.9-3,8.4-3.2,12.2C15.8,41.3,15.9,41.6,16.3,41.2z"/>
				<g>
					<g>
						<path class="st0" d="M53.9,32.3c0.5-0.1,1.1-0.1,1.3,0.1c0.3,0.3-0.4,1.4-0.8,2c-0.9,1.6-1,1.7-1.9,3.1c0,0-0.1-0.7,0.1-1.4
							c0.2-0.8,0.6-1.4,0.9-1.9c0.4-0.5,0.7-0.9,0.7-1.2C54,33,53,33.3,52.6,33.4c-0.5,0.1-1.6,0.5-2.6-0.1
							C49.9,33.2,52.7,32.5,53.9,32.3z"/>
						<path class="st0" d="M38.2,45.7c0.4-0.1,2.3-1.4,3.8-1.2c1.1,0.1,1.7,0.5,1.7,0.5c-1.1,0.1-2-0.1-3.8,0.8
							c-0.9,0.5-2,1.4-2.7,0.7c-0.4-0.4-0.4-1.3,0-3.2c0.5-2.1,1.3-3.4,1.3-3.4s0.1,0.8-0.7,4.7C37.7,45.4,37.7,45.9,38.2,45.7z"/>
					</g>
					<path class="st0" d="M36,68.8c0,0-0.2,1.4,1,2.8s2.8,3.1,2.8,3.1s0.3-1.2-0.9-2.6S36,68.8,36,68.8z"/>
					<path class="st0" d="M35.6,58.5c0,0-0.1,1.5,1.1,2.9c1.2,1.4,3.2,3.3,3.2,3.3s0.2-1.2-1.1-2.7C37.6,60.5,35.6,58.5,35.6,58.5z"
						/>
					<path class="st0" d="M35.4,48.1c0,0-0.2,1.4,1.1,3c1.3,1.5,3.8,4.5,3.8,4.5s0.2-1.5-1.1-3.1C37.8,50.9,35.4,48.1,35.4,48.1z"/>
				</g>
			</g>
		</g>
	</g>
	<g>
		<g>
			<g>
				<path d="M96.2,51.4V53h-1.7v1.4h1.7v10.4h1.9V54.4h3V53h-3v-1.5c0-1.3,0.7-2.4,2.3-2.4c0.5,0,0.9,0.1,1.3,0.2l0.1-1.3
					c-0.4-0.1-1.1-0.2-1.7-0.2C97.3,47.7,96.2,49.5,96.2,51.4z"/>
				<path d="M148.9,56c0-1,0.9-1.6,2.3-1.6c1,0,2.1,0.2,3.1,0.6l0.2-1.6c-1-0.4-2-0.7-3.2-0.7c-2.7,0-4.1,1.3-4.1,3.3
					c0,4,6.1,2.7,6.1,5.4c0,1.1-0.7,1.9-2.4,1.9c-1.1,0-2.5-0.4-3.4-1l-0.2,1.6c0.9,0.7,2.2,1,3.6,1c2.9,0,4.2-1.5,4.2-3.7
					C154.9,57.2,148.9,58.5,148.9,56z"/>
				<path d="M174.4,52.8c-3.6,0-5.2,1.8-5.2,6.2s1.6,6.1,5.2,6.1c3.6,0,5.1-1.7,5.1-6.1S178,52.8,174.4,52.8z M174.4,63.5
					c-2.3,0-3.2-1.2-3.2-4.5s0.9-4.5,3.2-4.5c2.3,0,3.2,1.2,3.2,4.5C177.5,62.3,176.7,63.5,174.4,63.5z"/>
				<path d="M194.2,52.8c-1.4,0-2.7,0.6-3.3,1.8h0c-0.6-1.2-1.6-1.8-3.2-1.8c-1.2,0-2.3,0.5-3.1,1.4h-0.1l-0.3-1.3l-1.3,0.1v11.8
					h1.9v-9c0.5-0.8,1.5-1.3,2.5-1.3c1.3,0,2.3,0.6,2.3,2.2v8.1h1.9v-8.1c0-1.5,1.1-2.2,2.3-2.2c1.5,0,2.5,0.8,2.5,2.4v7.9h1.9v-7.9
					C198,54.1,196.5,52.8,194.2,52.8z"/>
				<path d="M213.2,52.8c-1.4,0-2.7,0.6-3.3,1.8h0c-0.6-1.2-1.6-1.8-3.2-1.8c-1.2,0-2.3,0.5-3.1,1.4h-0.1l-0.3-1.3l-1.3,0.1v11.8
					h1.9v-9c0.5-0.8,1.5-1.3,2.5-1.3c1.3,0,2.3,0.6,2.3,2.2v8.1h1.9v-8.1c0-1.5,1.1-2.2,2.3-2.2c1.5,0,2.5,0.8,2.5,2.4v7.9h1.9v-7.9
					C217,54.1,215.5,52.8,213.2,52.8z"/>
				<path d="M228,60.9c0,1.6-0.9,2.4-2.7,2.4c-1.8,0-2.7-0.8-2.7-2.4V53h-1.9v7.9c0,2.6,1.5,4.1,4.6,4.1c3.1,0,4.6-1.5,4.6-4.1V53
					H228V60.9z"/>
				<path d="M238.7,52.8c-1.3,0-2.6,0.5-3.4,1.4h-0.1l-0.3-1.3l-1.3,0.1v11.8h1.9v-9c0.6-0.9,1.7-1.3,2.8-1.3c1.7,0,2.7,0.7,2.7,2.5
					v7.8h1.9V57C242.8,54.2,241.2,52.8,238.7,52.8z"/>
				<path d="M255.5,58.3c0-3.8-1.8-5.5-4.7-5.5c-3.3,0-4.9,2.1-4.9,5.8c0,4.4,1.6,6.5,5.5,6.5c1.4,0,2.7-0.3,3.7-0.9l-0.2-1.6
					c-1,0.5-2,0.8-3.2,0.8c-2.5,0-3.7-1.1-3.8-4.2h7.6C255.5,58.9,255.5,58.6,255.5,58.3z M247.8,57.9c0.1-2.3,1-3.5,3-3.5
					c1.7,0,2.9,1,2.9,3.5H247.8z"/>
				<polygon points="167.4,53 165.2,53 161.7,57.7 159.9,57.7 159.9,47.9 158.1,47.9 158.1,64.8 159.9,64.8 159.9,59.2 161.8,59.2 
					165.4,64.8 167.6,64.8 163.4,58.4 				"/>
				<polygon points="132.9,53 130.6,53 127.2,57.7 125.3,57.7 125.3,47.9 123.5,47.9 123.5,64.8 125.3,64.8 125.3,59.2 127.2,59.2 
					130.8,64.8 133,64.8 128.8,58.4 				"/>
				<rect x="117.5" y="47.9" width="1.9" height="16.9"/>
			</g>
			<path d="M112.8,53l-3.5,9.4l-3.5-9.4h-2l4.6,11.6c0,0-0.5,1.8-2.1,1.8h-1.5V68h1.8c1.7,0,2.9-1.1,3.7-3s4.6-12,4.6-12H112.8z"/>
			<path d="M144.3,58.3c0-3.8-1.8-5.5-4.7-5.5c-3.3,0-4.9,2.1-4.9,5.8c0,4.4,1.6,6.5,5.5,6.5c1.4,0,2.7-0.3,3.7-0.9l-0.2-1.6
				c-1,0.5-2,0.8-3.2,0.8c-2.5,0-3.7-1.1-3.8-4.2h7.6C144.3,58.9,144.3,58.6,144.3,58.3z M136.7,57.9c0.1-2.3,1-3.5,3-3.5
				c1.7,0,2.9,1,2.9,3.5H136.7z"/>
		</g>
		<g>
			<g>
				<g>
					<g>
						<g>
							<g>
								<polygon points="89.5,15 89.5,19.4 96.2,19.4 96.2,39 101.1,39 101.1,19.4 107.6,19.4 107.6,15 								"/>
							</g>
							<polygon points="188.2,30.1 187.5,31.9 180.8,15.1 180.7,15 175.4,15 175.4,39 179.8,39 179.8,25.1 179.8,23.9 185.8,39 
								189.1,39 194.6,25 195.1,23.8 195.1,25.1 195.1,39 199.5,39 199.5,15 194.3,15 							"/>
							<path d="M212.8,15l-8.6,24h5.2l1.6-5h9l1.5,5h5.4l-8.6-24H212.8z M215.6,19.2l0.5,1.7l2.7,8.8h-6.4l2.7-8.8L215.6,19.2z"/>
							<path d="M248.7,22.3c0-4.9-2.8-7.3-8.4-7.3h-8.6v24h4.8v-9.2h3.6l4.6,9.2h5.7l-5.9-10.2C247.3,28,248.7,25.7,248.7,22.3z
								 M243.7,22.4c0,2.6-0.9,3.4-3.5,3.4h-3.6v-6.7h3.8C242.8,19.2,243.7,20,243.7,22.4z"/>
							<polygon points="266.9,26.4 274.6,15 268.9,15 262.6,24.5 260,24.5 260,15 255.1,15 255.1,39 260,39 260,28.7 262.5,28.7 
								269,38.9 269.1,39 275,39 							"/>
						</g>
						<polygon points="127.9,34.6 117.4,34.6 117.4,28.6 126.5,28.6 126.5,24.5 117.4,24.5 117.4,19.4 127.4,19.4 127.4,15 
							112.5,15 112.5,39 127.9,39 						"/>
						<polygon points="138.7,34.6 138.7,15 133.8,15 133.8,39 149.2,39 149.2,34.6 						"/>
						<polygon points="169.4,34.6 158.9,34.6 158.9,28.6 168,28.6 168,24.5 158.9,24.5 158.9,19.4 168.9,19.4 168.9,15 154,15 
							154,39 169.4,39 						"/>
					</g>
				</g>
			</g>
		</g>
	</g>
</g>
</svg>
